<svg width="40" height="40" viewBox="0 0 40 40" fill="none" xmlns="http://www.w3.org/2000/svg">
<path d="M14.2857 11.4286H17.1429V17.1429H22.8571V20H17.1429V28.5714H14.2857V11.4286Z" fill="#8854F5" fill-opacity="0.25"/>
<path d="M25.7143 20H22.8571V28.5714H25.7143V20Z" fill="#8854F5" fill-opacity="0.25"/>
<path d="M22.8571 17.1429V11.4286H25.7143V17.1429H22.8571Z" fill="#8854F5" fill-opacity="0.25"/>
<path fill-rule="evenodd" clip-rule="evenodd" d="M14.2857 0V2.85714H8.57143V5.71429H5.71429V8.57143H2.85714V14.2857H0V25.7143H2.85714V31.4286H5.71429V34.2857H8.57143V37.1429H14.2857V40H25.7143V37.1429H31.4286V34.2857H34.2857V31.4286H37.1429V25.7143H40V14.2857H37.1429V8.57143H34.2857V5.71429H31.4286V2.85714H25.7143V0H14.2857ZM25.7143 2.85714V5.71429H31.4286V8.57143H34.2857V14.2857H37.1429V25.7143H34.2857V31.4286H31.4286V34.2857H25.7143V37.1429H14.2857V34.2857H8.57143V31.4286H5.71429V25.7143H2.85714V14.2857H5.71429V8.57143H8.57143V5.71429H14.2857V2.85714H25.7143Z" fill="#8854F5" fill-opacity="0.25"/>
</svg>
