<svg width="40" height="40" viewBox="0 0 40 40" fill="none" xmlns="http://www.w3.org/2000/svg">
<path d="M40 0.8C40 0.358172 39.6418 0 39.2 0H31.5692C31.1274 0 30.7692 0.358172 30.7692 0.8V2.27692C30.7692 2.71875 30.4111 3.07692 29.9692 3.07692H28.4923C28.0505 3.07692 27.6923 3.4351 27.6923 3.87692V5.35385C27.6923 5.79567 27.3341 6.15385 26.8923 6.15385H25.4154C24.9736 6.15385 24.6154 6.51202 24.6154 6.95385V8.43077C24.6154 8.8726 24.2572 9.23077 23.8154 9.23077H22.3385C21.8966 9.23077 21.5385 9.58894 21.5385 10.0308V11.5077C21.5385 11.9495 21.1803 12.3077 20.7385 12.3077H19.2615C18.8197 12.3077 18.4615 12.6659 18.4615 13.1077V14.5846C18.4615 15.0264 18.1034 15.3846 17.6615 15.3846H16.1846C15.7428 15.3846 15.3846 15.7428 15.3846 16.1846V17.6615C15.3846 18.1034 15.0264 18.4615 14.5846 18.4615H13.1077C12.6659 18.4615 12.3077 18.1034 12.3077 17.6615V16.1846C12.3077 15.7428 11.9495 15.3846 11.5077 15.3846H10.0308C9.58894 15.3846 9.23077 15.0264 9.23077 14.5846V13.1077C9.23077 12.6659 8.8726 12.3077 8.43077 12.3077H3.87692C3.4351 12.3077 3.07692 12.6659 3.07692 13.1077V17.6615C3.07692 18.1034 3.4351 18.4615 3.87692 18.4615H5.35385C5.79567 18.4615 6.15385 18.8197 6.15385 19.2615V23.8154C6.15385 24.2572 6.51202 24.6154 6.95385 24.6154H8.43077C8.8726 24.6154 9.23077 24.9736 9.23077 25.4154V26.8923C9.23077 27.3341 8.8726 27.6923 8.43077 27.6923H6.95385C6.51202 27.6923 6.15385 28.0505 6.15385 28.4923V29.9692C6.15385 30.4111 5.79567 30.7692 5.35385 30.7692H0.8C0.358172 30.7692 0 31.1274 0 31.5692V39.2C0 39.6418 0.358173 40 0.800001 40H8.43077C8.8726 40 9.23077 39.6418 9.23077 39.2V34.6462C9.23077 34.2043 9.58894 33.8462 10.0308 33.8462H11.5077C11.9495 33.8462 12.3077 33.488 12.3077 33.0462V31.5692C12.3077 31.1274 12.6659 30.7692 13.1077 30.7692H14.5846C15.0264 30.7692 15.3846 31.1274 15.3846 31.5692V33.0462C15.3846 33.488 15.7428 33.8462 16.1846 33.8462H20.7385C21.1803 33.8462 21.5385 34.2043 21.5385 34.6462V36.1231C21.5385 36.5649 21.8966 36.9231 22.3385 36.9231H26.8923C27.3341 36.9231 27.6923 36.5649 27.6923 36.1231V31.5692C27.6923 31.1274 27.3341 30.7692 26.8923 30.7692H25.4154C24.9736 30.7692 24.6154 30.4111 24.6154 29.9692V28.4923C24.6154 28.0505 24.2572 27.6923 23.8154 27.6923H22.3385C21.8966 27.6923 21.5385 27.3341 21.5385 26.8923V25.4154C21.5385 24.9736 21.8966 24.6154 22.3385 24.6154H23.8154C24.2572 24.6154 24.6154 24.2572 24.6154 23.8154V22.3385C24.6154 21.8966 24.9736 21.5385 25.4154 21.5385H26.8923C27.3341 21.5385 27.6923 21.1803 27.6923 20.7385V19.2615C27.6923 18.8197 28.0505 18.4615 28.4923 18.4615H29.9692C30.4111 18.4615 30.7692 18.1034 30.7692 17.6615V16.1846C30.7692 15.7428 31.1274 15.3846 31.5692 15.3846H33.0462C33.488 15.3846 33.8462 15.0264 33.8462 14.5846V13.1077C33.8462 12.6659 34.2043 12.3077 34.6462 12.3077H36.1231C36.5649 12.3077 36.9231 11.9495 36.9231 11.5077V10.0308C36.9231 9.58894 37.2812 9.23077 37.7231 9.23077H39.2C39.6418 9.23077 40 8.8726 40 8.43077V0.8Z" fill="#8854F5" fill-opacity="0.25"/>
</svg>
