<svg width="40" height="40" viewBox="0 0 40 40" fill="none" xmlns="http://www.w3.org/2000/svg">
<path d="M15.3455 0C14.9036 0 14.5455 0.358172 14.5455 0.8V2.83636C14.5455 3.27819 14.1873 3.63636 13.7455 3.63636H11.7091C11.2673 3.63636 10.9091 3.99454 10.9091 4.43636V6.47273C10.9091 6.91456 11.2673 7.27273 11.7091 7.27273H13.7455C14.1873 7.27273 14.5455 7.6309 14.5455 8.07273V10.1091C14.5455 10.5509 14.9036 10.9091 15.3455 10.9091H21.0182C21.46 10.9091 21.8182 11.2673 21.8182 11.7091V13.7455C21.8182 14.1873 21.46 14.5455 21.0182 14.5455H18.9818C18.54 14.5455 18.1818 14.9036 18.1818 15.3455V17.3818C18.1818 17.8236 17.8236 18.1818 17.3818 18.1818H15.3455C14.9036 18.1818 14.5455 18.54 14.5455 18.9818V21.0182C14.5455 21.46 14.1873 21.8182 13.7455 21.8182H11.7091C11.2673 21.8182 10.9091 22.1764 10.9091 22.6182V24.6545C10.9091 25.0964 10.5509 25.4545 10.1091 25.4545H8.07273C7.6309 25.4545 7.27273 25.8127 7.27273 26.2545V28.2909C7.27273 28.7327 6.91456 29.0909 6.47273 29.0909H4.43636C3.99454 29.0909 3.63636 29.4491 3.63636 29.8909V31.9273C3.63636 32.3691 3.27819 32.7273 2.83636 32.7273H0.8C0.358172 32.7273 0 33.0854 0 33.5273V39.2C0 39.6418 0.358172 40 0.8 40H6.47273C6.91456 40 7.27273 39.6418 7.27273 39.2V37.1636C7.27273 36.7218 7.6309 36.3636 8.07273 36.3636H10.1091C10.5509 36.3636 10.9091 36.0055 10.9091 35.5636V33.5273C10.9091 33.0854 11.2673 32.7273 11.7091 32.7273H13.7455C14.1873 32.7273 14.5455 32.3691 14.5455 31.9273V29.8909C14.5455 29.4491 14.9036 29.0909 15.3455 29.0909H17.3818C17.8236 29.0909 18.1818 28.7327 18.1818 28.2909V26.2545C18.1818 25.8127 18.54 25.4545 18.9818 25.4545H21.0182C21.46 25.4545 21.8182 25.0964 21.8182 24.6545V22.6182C21.8182 22.1764 22.1764 21.8182 22.6182 21.8182H24.6545C25.0964 21.8182 25.4545 21.46 25.4545 21.0182V18.9818C25.4545 18.54 25.8127 18.1818 26.2545 18.1818H28.2909C28.7327 18.1818 29.0909 18.54 29.0909 18.9818V24.6545C29.0909 25.0964 29.4491 25.4545 29.8909 25.4545H31.9273C32.3691 25.4545 32.7273 25.8127 32.7273 26.2545V28.2909C32.7273 28.7327 33.0854 29.0909 33.5273 29.0909H35.5636C36.0055 29.0909 36.3636 28.7327 36.3636 28.2909V26.2545C36.3636 25.8127 36.7218 25.4545 37.1636 25.4545H39.2C39.6418 25.4545 40 25.0964 40 24.6545V15.3455C40 14.9036 39.6418 14.5455 39.2 14.5455H37.1636C36.7218 14.5455 36.3636 14.1873 36.3636 13.7455V4.43636C36.3636 3.99454 36.0055 3.63636 35.5636 3.63636H26.2545C25.8127 3.63636 25.4545 3.27819 25.4545 2.83636V0.8C25.4545 0.358172 25.0964 0 24.6545 0H15.3455Z" fill="#8854F5" fill-opacity="0.25"/>
</svg>
