<svg width="40" height="40" viewBox="0 0 40 40" fill="none" xmlns="http://www.w3.org/2000/svg">
<path d="M30.7692 0.8C30.7692 0.358172 31.1274 0 31.5692 0H39.2C39.6418 0 40 0.358173 40 0.800001V8.43077C40 8.8726 39.6418 9.23077 39.2 9.23077H36.9231V3.87692C36.9231 3.4351 36.5649 3.07692 36.1231 3.07692H30.7692V0.8Z" fill="#8854F5" fill-opacity="0.25"/>
<path d="M27.6923 6.15385V3.87692C27.6923 3.4351 28.0505 3.07692 28.4923 3.07692H30.7692V5.35385C30.7692 5.79567 30.4111 6.15385 29.9692 6.15385H27.6923Z" fill="#8854F5" fill-opacity="0.25"/>
<path d="M24.6154 9.23077V6.95385C24.6154 6.51202 24.9736 6.15385 25.4154 6.15385H27.6923V8.43077C27.6923 8.8726 27.3341 9.23077 26.8923 9.23077H24.6154Z" fill="#8854F5" fill-opacity="0.25"/>
<path d="M21.5385 12.3077V10.0308C21.5385 9.58894 21.8966 9.23077 22.3385 9.23077H24.6154V11.5077C24.6154 11.9495 24.2572 12.3077 23.8154 12.3077H21.5385Z" fill="#8854F5" fill-opacity="0.25"/>
<path d="M18.4615 15.3846V13.1077C18.4615 12.6659 18.8197 12.3077 19.2615 12.3077H21.5385V14.5846C21.5385 15.0264 21.1803 15.3846 20.7385 15.3846H18.4615Z" fill="#8854F5" fill-opacity="0.25"/>
<path d="M15.3846 18.4615V16.1846C15.3846 15.7428 15.7428 15.3846 16.1846 15.3846H18.4615V17.6615C18.4615 18.1034 18.1034 18.4615 17.6615 18.4615H15.3846Z" fill="#8854F5" fill-opacity="0.25"/>
<path fill-rule="evenodd" clip-rule="evenodd" d="M15.3846 24.6154V18.4615H12.3077V16.1846C12.3077 15.7428 11.9495 15.3846 11.5077 15.3846H9.23077V13.1077C9.23077 12.6659 8.8726 12.3077 8.43077 12.3077H3.87692C3.4351 12.3077 3.07692 12.6659 3.07692 13.1077V17.6615C3.07692 18.1034 3.4351 18.4615 3.87692 18.4615H6.15385V23.8154C6.15385 24.2572 6.51202 24.6154 6.95385 24.6154H9.23077V27.6923H6.95385C6.51202 27.6923 6.15385 28.0505 6.15385 28.4923V29.9692C6.15385 30.4111 5.79567 30.7692 5.35385 30.7692H0.8C0.358172 30.7692 0 31.1274 0 31.5692V39.2C0 39.6418 0.358172 40 0.8 40H8.43077C8.8726 40 9.23077 39.6418 9.23077 39.2V34.6462C9.23077 34.2043 9.58894 33.8462 10.0308 33.8462H11.5077C11.9495 33.8462 12.3077 33.488 12.3077 33.0462V30.7692H15.3846V33.0462C15.3846 33.488 15.7428 33.8462 16.1846 33.8462H21.5385V36.1231C21.5385 36.5649 21.8966 36.9231 22.3385 36.9231H26.8923C27.3341 36.9231 27.6923 36.5649 27.6923 36.1231V31.5692C27.6923 31.1274 27.3341 30.7692 26.8923 30.7692H24.6154V28.4923C24.6154 28.0505 24.2572 27.6923 23.8154 27.6923H21.5385V24.6154H23.8154C24.2572 24.6154 24.6154 24.2572 24.6154 23.8154V21.5385H26.8923C27.3341 21.5385 27.6923 21.1803 27.6923 20.7385V18.4615H29.9692C30.4111 18.4615 30.7692 18.1034 30.7692 17.6615V15.3846H33.0462C33.488 15.3846 33.8462 15.0264 33.8462 14.5846V12.3077H36.1231C36.5649 12.3077 36.9231 11.9495 36.9231 11.5077V9.23077H34.6462C34.2043 9.23077 33.8462 9.58894 33.8462 10.0308V12.3077H31.5692C31.1274 12.3077 30.7692 12.6659 30.7692 13.1077V15.3846H28.4923C28.0505 15.3846 27.6923 15.7428 27.6923 16.1846V18.4615H25.4154C24.9736 18.4615 24.6154 18.8197 24.6154 19.2615V21.5385H22.3385C21.8966 21.5385 21.5385 21.8966 21.5385 22.3385V24.6154H15.3846ZM15.3846 27.6923V24.6154H12.3077V18.4615H9.23077V15.3846H6.95385C6.51202 15.3846 6.15385 15.7428 6.15385 16.1846V18.4615H9.23077V24.6154H12.3077V27.6923H9.23077V29.9692C9.23077 30.4111 9.58894 30.7692 10.0308 30.7692H12.3077V27.6923H15.3846ZM15.3846 27.6923V30.7692H21.5385V33.8462H23.8154C24.2572 33.8462 24.6154 33.488 24.6154 33.0462V30.7692H21.5385V27.6923H15.3846ZM3.07692 34.6462C3.07692 34.2043 3.4351 33.8462 3.87692 33.8462H5.35385C5.79567 33.8462 6.15385 34.2043 6.15385 34.6462V36.1231C6.15385 36.5649 5.79567 36.9231 5.35385 36.9231H3.87692C3.4351 36.9231 3.07692 36.5649 3.07692 36.1231V34.6462Z" fill="#8854F5" fill-opacity="0.25"/>
</svg>
