<svg width="40" height="40" viewBox="0 0 40 40" fill="none" xmlns="http://www.w3.org/2000/svg">
<path d="M14.5455 0.8C14.5455 0.358172 14.9036 0 15.3455 0H24.6545C25.0964 0 25.4545 0.358172 25.4545 0.8V3.63636H14.5455V0.8Z" fill="#8854F5" fill-opacity="0.25"/>
<path d="M14.5455 7.27273H11.7091C11.2673 7.27273 10.9091 6.91456 10.9091 6.47273V4.43636C10.9091 3.99454 11.2673 3.63636 11.7091 3.63636H14.5455V7.27273Z" fill="#8854F5" fill-opacity="0.25"/>
<path d="M21.8182 10.9091H15.3455C14.9036 10.9091 14.5455 10.5509 14.5455 10.1091V7.27273H21.0182C21.46 7.27273 21.8182 7.6309 21.8182 8.07273V10.9091Z" fill="#8854F5" fill-opacity="0.25"/>
<path fill-rule="evenodd" clip-rule="evenodd" d="M25.4545 14.5455V11.7091C25.4545 11.2673 25.0964 10.9091 24.6545 10.9091H21.8182V14.5455H18.9818C18.54 14.5455 18.1818 14.9036 18.1818 15.3455V18.1818H15.3455C14.9036 18.1818 14.5455 18.54 14.5455 18.9818V21.8182H11.7091C11.2673 21.8182 10.9091 22.1764 10.9091 22.6182V25.4545H8.07273C7.6309 25.4545 7.27273 25.8127 7.27273 26.2545V29.0909H4.43636C3.99454 29.0909 3.63636 29.4491 3.63636 29.8909V32.7273H0.8C0.358172 32.7273 0 33.0854 0 33.5273V39.2C0 39.6418 0.358172 40 0.8 40H6.47273C6.91456 40 7.27273 39.6418 7.27273 39.2V36.3636H10.1091C10.5509 36.3636 10.9091 36.0055 10.9091 35.5636V32.7273H13.7455C14.1873 32.7273 14.5455 32.3691 14.5455 31.9273V29.0909H17.3818C17.8236 29.0909 18.1818 28.7327 18.1818 28.2909V25.4545H21.0182C21.46 25.4545 21.8182 25.0964 21.8182 24.6545V21.8182H24.6545C25.0964 21.8182 25.4545 21.46 25.4545 21.0182V18.1818H29.0909V24.6545C29.0909 25.0964 29.4491 25.4545 29.8909 25.4545H32.7273V28.2909C32.7273 28.7327 33.0854 29.0909 33.5273 29.0909H35.5636C36.0055 29.0909 36.3636 28.7327 36.3636 28.2909V25.4545H39.2C39.6418 25.4545 40 25.0964 40 24.6545V15.3455C40 14.9036 39.6418 14.5455 39.2 14.5455H36.3636V4.43636C36.3636 3.99454 36.0055 3.63636 35.5636 3.63636H25.4545V6.47273C25.4545 6.91456 25.8127 7.27273 26.2545 7.27273H28.2909C28.7327 7.27273 29.0909 7.6309 29.0909 8.07273V10.1091C29.0909 10.5509 29.4491 10.9091 29.8909 10.9091H31.9273C32.3691 10.9091 32.7273 11.2673 32.7273 11.7091V13.7455C32.7273 14.1873 33.0854 14.5455 33.5273 14.5455H36.3636V25.4545H32.7273V18.9818C32.7273 18.54 32.3691 18.1818 31.9273 18.1818H29.0909V15.3455C29.0909 14.9036 28.7327 14.5455 28.2909 14.5455H25.4545ZM21.8182 18.1818V14.5455H25.4545V18.1818H21.8182ZM18.1818 21.8182V18.1818H21.8182V21.8182H18.1818ZM14.5455 25.4545V21.8182H18.1818V25.4545H14.5455ZM10.9091 29.0909V25.4545H14.5455V29.0909H10.9091ZM7.27273 32.7273V29.0909H10.9091V32.7273H7.27273ZM7.27273 32.7273V36.3636H4.43636C3.99454 36.3636 3.63636 36.0055 3.63636 35.5636V32.7273H7.27273Z" fill="#8854F5" fill-opacity="0.25"/>
</svg>
