<svg width="34" height="40" viewBox="0 0 34 40" fill="none" xmlns="http://www.w3.org/2000/svg">
<path d="M12.3636 0.576923C12.3636 0.258297 12.6231 0 12.9432 0H21.0568C21.3769 0 21.6364 0.258297 21.6364 0.576923V3.07692H12.3636V0.576923Z" fill="#8854F5" fill-opacity="0.25"/>
<path fill-rule="evenodd" clip-rule="evenodd" d="M12.3636 6.15385V3.07692H9.85227C9.5322 3.07692 9.27273 3.33522 9.27273 3.65385V6.15385H6.76136C6.44129 6.15385 6.18182 6.41214 6.18182 6.73077V9.23077H3.67045C3.35038 9.23077 3.09091 9.48907 3.09091 9.80769V15.3846H0.579545C0.259471 15.3846 0 15.6429 0 15.9615V27.1154C0 27.434 0.259471 27.6923 0.579545 27.6923H3.09091V33.2692C3.09091 33.5879 3.35038 33.8462 3.67045 33.8462H5.60227C5.92235 33.8462 6.18182 34.1045 6.18182 34.4231V36.3462C6.18182 36.6648 6.44129 36.9231 6.76136 36.9231H9.27273V39.4231C9.27273 39.7417 9.5322 40 9.85227 40H24.1477C24.4678 40 24.7273 39.7417 24.7273 39.4231V36.9231H27.2386C27.5587 36.9231 27.8182 36.6648 27.8182 36.3462V34.4231C27.8182 34.1045 28.0777 33.8462 28.3977 33.8462H30.3295C30.6496 33.8462 30.9091 33.5879 30.9091 33.2692V28.2692C30.9091 27.9506 31.1686 27.6923 31.4886 27.6923H33.4205C33.7405 27.6923 34 27.434 34 27.1154V15.9615C34 15.6429 33.7405 15.3846 33.4205 15.3846H31.4886C31.1686 15.3846 30.9091 15.1263 30.9091 14.8077V9.80769C30.9091 9.48907 30.6496 9.23077 30.3295 9.23077H28.3977C28.0777 9.23077 27.8182 8.97247 27.8182 8.65385V6.73077C27.8182 6.41214 27.5587 6.15385 27.2386 6.15385H25.3068C24.9867 6.15385 24.7273 5.89555 24.7273 5.57692V3.65385C24.7273 3.33522 24.4678 3.07692 24.1477 3.07692H21.6364V5.57692C21.6364 5.89555 21.3769 6.15385 21.0568 6.15385H12.3636ZM9.27273 9.23077H11.7841C12.1042 9.23077 12.3636 8.97247 12.3636 8.65385V6.15385H9.27273V9.23077ZM9.27273 15.3846V9.23077H6.18182V15.3846H3.09091V27.6923H5.60227C5.92235 27.6923 6.18182 27.434 6.18182 27.1154V15.3846H9.27273ZM12.3636 15.3846H9.27273V17.8846C9.27273 18.2032 9.5322 18.4615 9.85227 18.4615H11.7841C12.1042 18.4615 12.3636 18.2032 12.3636 17.8846V15.3846ZM12.3636 15.3846H14.875C15.1951 15.3846 15.4545 15.1263 15.4545 14.8077V12.8846C15.4545 12.566 15.1951 12.3077 14.875 12.3077H12.9432C12.6231 12.3077 12.3636 12.566 12.3636 12.8846V15.3846ZM21.6364 27.6923V36.3462C21.6364 36.6648 21.8958 36.9231 22.2159 36.9231H24.7273V28.2692C24.7273 27.9506 24.4678 27.6923 24.1477 27.6923H21.6364ZM12.3636 27.6923H21.6364V24.6154H24.1477C24.4678 24.6154 24.7273 24.3571 24.7273 24.0385V15.9615C24.7273 15.6429 24.4678 15.3846 24.1477 15.3846H22.2159C21.8958 15.3846 21.6364 15.6429 21.6364 15.9615V24.6154H12.3636V22.1154C12.3636 21.7968 12.1042 21.5385 11.7841 21.5385H9.85227C9.5322 21.5385 9.27273 21.7968 9.27273 22.1154V24.0385C9.27273 24.3571 9.5322 24.6154 9.85227 24.6154H12.3636V27.6923ZM11.7841 36.9231C12.1042 36.9231 12.3636 36.6648 12.3636 36.3462V27.6923H9.85227C9.5322 27.6923 9.27273 27.9506 9.27273 28.2692V36.9231H11.7841ZM21.6364 11.7308C21.6364 12.0494 21.3769 12.3077 21.0568 12.3077H19.125C18.8049 12.3077 18.5455 12.0494 18.5455 11.7308V9.80769C18.5455 9.48907 18.8049 9.23077 19.125 9.23077H21.0568C21.3769 9.23077 21.6364 9.48907 21.6364 9.80769V11.7308Z" fill="#8854F5" fill-opacity="0.25"/>
</svg>
